<?xml version="1.0" encoding="UTF-8"?>
<svg id="Capa_2" data-name="Capa 2" xmlns="http://www.w3.org/2000/svg" viewBox="0 0 480.45 480.93">
  <defs>
    <style>
      .cls-1 {
        fill: #00539f;
      }
    </style>
  </defs>
  <g id="Layer_1" data-name="Layer 1">
    <g>
      <polygon class="cls-1" points="111.23 153.16 111.23 110.54 0 110.54 0 153.16 25.52 153.16 25.52 244.32 0 244.32 0 286.93 111.23 286.93 111.23 244.32 85.71 244.32 85.71 153.16 111.23 153.16"/>
      <path class="cls-1" d="M233.98,178.22c-6.88-2-42.25-12.12-48.38-14.12s-11.12-4.88-11.12-8.5,5.62-7.5,17-7.5c35.88,0,53.11,22.12,53.11,22.12,0,0,1.94,2.59,2.59,3.51h34.61v-60.36h-37.16v10.98c-2.84-1.96-23.79-15.63-56.28-15.63-42.88,0-66.75,22.25-66.75,55.5s30.12,47,38.5,50.5,41.13,12.75,55.13,17.12,19.12,7.5,19.12,9.75-6.12,8.12-23.62,8.12c-30.48,0-46.18-17.98-48.94-21.46v-.03c-.88-1.17-1.9-2.56-2.25-3.09-.4-.61-1.34-1.95-1.99-2.88h-34.61v64.46h38.86v-13.46c4.52,3.01,27.66,17.45,55.44,17.45,31,0,70.5-13.5,70.5-55.62s-46.88-54.88-53.75-56.88Z"/>
      <path class="cls-1" d="M386.39,108.13c-51.68,0-94.06,25.84-94.06,91.79s46.01,90.66,94.29,90.66,93.83-24.48,93.83-89.98-45.56-92.48-94.06-92.48ZM386.85,246.62c-17.68,0-29.01-4.08-29.01-46.92s8.39-47.37,29.69-47.37c12.92,0,28.56.91,28.56,46.01s-11.56,48.28-29.24,48.28Z"/>
      <g>
        <path class="cls-1" d="M74.12,91.09c11.62-17.15,25.9-32.36,42.28-44.99,6.62,4.9,13.66,9.34,21.06,13.29-12.4,13.82-23.51,29.13-25.35,31.69h7.44c4.46-6.02,13.7-18.12,23.44-28.86,10.65,5.23,21.96,9.51,33.76,12.77-3.14,6.67-5.52,12.5-6.91,16.08h6.46c1.49-3.7,3.66-8.85,6.38-14.55,15.06,3.68,30.84,5.74,46.98,6.06v8.49h6v-8.46c16.02-.12,31.71-1.94,46.72-5.37,2.56,5.41,4.62,10.3,6.04,13.84h6.46c-1.34-3.45-3.58-8.96-6.54-15.3,12.02-3.13,23.54-7.29,34.4-12.44,9.37,10.45,18.12,21.93,22.43,27.74h7.44c-1.78-2.48-12.32-17.01-24.29-30.5,8.23-4.25,16.03-9.09,23.32-14.48,16.38,12.63,30.66,27.83,42.28,44.99h7.22C365.66,36.32,304,0,234.02,0S102.39,36.32,66.9,91.09h7.22ZM179.43,69.52c-11.23-3.03-22-7.01-32.16-11.87,1.38-1.43,2.76-2.82,4.12-4.14,13.91-13.41,36.78-28.14,41.79-31.31,4.07,2.24,8.51,4.12,13.23,5.62-3.67,4.81-10.87,14.57-18.71,26.96-3.05,4.82-5.83,9.89-8.28,14.73ZM229.66,76.59c-15.2-.3-30.05-2.2-44.26-5.56,2.22-4.34,4.7-8.81,7.38-13.04,9.04-14.27,17.19-24.98,19.9-28.46,5.42,1.27,11.11,2.08,16.98,2.34v44.72h0ZM235.66,76.62V31.94c5.78-.1,11.44-.71,16.86-1.8,3.1,4.01,10.87,14.34,19.43,27.85,2.82,4.45,5.41,9.16,7.72,13.72-14.15,3.13-28.92,4.8-44.01,4.91ZM285.68,70.29c-2.54-5.08-5.45-10.43-8.67-15.51-7.44-11.75-14.3-21.14-18.12-26.18,5.02-1.41,9.77-3.25,14.12-5.46,7.04,4.51,27.48,17.99,40.31,30.37,1.7,1.64,3.43,3.4,5.15,5.22-10.37,4.79-21.36,8.66-32.8,11.56ZM346.62,42.35c-7.04,5.08-14.56,9.63-22.48,13.64-2.21-2.37-4.45-4.67-6.65-6.8-12-11.57-29.87-23.71-38.62-29.42,2.97-1.93,5.69-4.06,8.12-6.38,21.67,6.19,41.79,16.09,59.64,28.96ZM234.02,6c15.84,0,31.24,1.93,45.99,5.55-11.19,9.09-27.96,14.42-45.99,14.42s-34.83-5.31-46.01-14.42c14.75-3.62,30.16-5.56,46.01-5.56ZM181.06,13.39c1.97,1.89,4.13,3.66,6.48,5.29-7.93,5.1-27.47,18.12-40.3,30.5-1.85,1.78-3.71,3.68-5.57,5.64-7.1-3.72-13.87-7.88-20.24-12.48,17.85-12.86,37.96-22.76,59.64-28.96Z"/>
        <path class="cls-1" d="M393.94,306.92c-11.37,16.79-25.3,31.72-41.24,44.18-7.59-5.71-15.74-10.81-24.36-15.27,10.38-11.71,19.69-24.19,23.13-28.91h-7.47c-4.61,6.15-12.67,16.58-21.24,26.15-10.86-5.15-22.39-9.32-34.4-12.45,2.54-5.44,4.55-10.26,5.91-13.7h-6.48c-1.37,3.35-3.2,7.61-5.4,12.25-15-3.43-30.68-5.25-46.72-5.37v-6.88h-6v6.91c-16.15.31-31.93,2.37-46.98,6.05-2.34-4.92-4.29-9.43-5.73-12.95h-6.48c1.43,3.6,3.57,8.73,6.28,14.49-11.81,3.26-23.12,7.54-33.77,12.77-8.94-9.86-17.46-20.87-22.25-27.26h-7.47c3.56,4.88,13.38,18.06,24.2,30.11-7.79,4.17-15.18,8.87-22.11,14.08-15.94-12.47-29.87-27.39-41.24-44.18h-7.21c35.49,54.77,97.14,91.09,167.12,91.09s131.63-36.32,167.12-91.09h-7.21ZM285.68,326.13c11.44,2.9,22.43,6.78,32.8,11.57-1.73,1.82-3.45,3.58-5.16,5.23-12.79,12.33-33.17,25.78-40.26,30.33-4.35-2.23-9.1-4.06-14.14-5.47,3.82-5.05,10.67-14.42,18.09-26.14,3.22-5.08,6.13-10.43,8.67-15.51ZM235.66,319.8c15.1.11,29.87,1.78,44.01,4.9-2.31,4.56-4.91,9.27-7.73,13.72-8.55,13.5-16.3,23.81-19.42,27.84-5.4-1.08-11.06-1.68-16.87-1.78v-44.69h0ZM229.66,319.83v44.72c-5.88.26-11.58,1.06-17,2.32-2.73-3.51-10.86-14.19-19.88-28.44-2.68-4.23-5.16-8.7-7.38-13.05,14.19-3.36,29.05-5.25,44.26-5.55ZM179.43,326.9c2.45,4.85,5.23,9.92,8.28,14.74,7.84,12.38,15.03,22.13,18.71,26.95-4.73,1.5-9.16,3.39-13.23,5.63-5.03-3.18-27.89-17.9-41.79-31.3-1.37-1.32-2.74-2.71-4.13-4.14,10.15-4.87,20.93-8.84,32.16-11.88ZM120.34,354.87c6.69-4.92,13.82-9.35,21.32-13.28,1.86,1.96,3.73,3.86,5.57,5.65,12.83,12.37,32.36,25.39,40.3,30.5-2.83,1.98-5.4,4.15-7.69,6.52-21.64-6.34-41.72-16.38-59.5-29.39ZM234.02,392.01c-16.36,0-32.26-2.05-47.44-5.91,11.09-9.74,28.69-15.65,47.44-15.65s36.35,5.91,47.43,15.65c-15.18,3.85-31.07,5.9-47.43,5.9ZM288.21,384.25c-2.72-2.8-5.83-5.36-9.3-7.63,8.77-5.71,26.6-17.83,38.59-29.39,2.21-2.13,4.44-4.42,6.66-6.8,8.32,4.21,16.21,9.03,23.56,14.43-17.78,13.01-37.86,23.05-59.5,29.39Z"/>
      </g>
      <g>
        <path class="cls-1" d="M11.44,461.64c.27,4.96,2.18,8.39,5.75,10.29,1.83,1,3.9,1.5,6.2,1.5,4.3,0,7.96-1.79,10.99-5.37,3.03-3.58,5.18-10.85,6.45-21.81-2,3.16-4.47,5.39-7.42,6.67-2.95,1.28-6.12,1.92-9.52,1.92-6.9,0-12.35-2.15-16.36-6.44-4.01-4.29-6.02-9.82-6.02-16.57s1.98-12.2,5.95-17.12,9.81-7.39,17.54-7.39c10.43,0,17.62,4.69,21.59,14.08,2.2,5.16,3.3,11.62,3.3,19.38,0,8.76-1.32,16.51-3.95,23.27-4.36,11.25-11.76,16.88-22.19,16.88-7,0-12.31-1.83-15.94-5.5-3.63-3.66-5.45-8.26-5.45-13.79h9.09ZM34.85,443.43c2.95-2.35,4.42-6.44,4.42-12.3,0-5.26-1.32-9.17-3.97-11.75-2.65-2.58-6.02-3.87-10.12-3.87-4.4,0-7.89,1.47-10.47,4.42-2.58,2.94-3.87,6.88-3.87,11.8,0,4.66,1.13,8.36,3.4,11.1,2.26,2.74,5.88,4.11,10.84,4.11,3.56,0,6.82-1.17,9.77-3.52Z"/>
        <path class="cls-1" d="M102.54,418.87c3.2,5.9,4.8,13.98,4.8,24.24,0,9.73-1.45,17.77-4.35,24.14-4.2,9.13-11.06,13.69-20.59,13.69-8.6,0-14.99-3.73-19.19-11.19-3.5-6.23-5.25-14.59-5.25-25.08,0-8.13,1.05-15.11,3.15-20.94,3.93-10.86,11.04-16.29,21.34-16.29,9.26,0,15.96,3.81,20.09,11.44ZM93.49,466.54c2.77-4.13,4.15-11.83,4.15-23.08,0-8.13-1-14.82-3-20.06-2-5.25-5.89-7.87-11.66-7.87-5.31,0-9.18,2.49-11.64,7.47-2.45,4.98-3.68,12.32-3.68,22.01,0,7.3.78,13.16,2.35,17.59,2.4,6.76,6.51,10.14,12.31,10.14,4.67,0,8.39-2.07,11.16-6.2Z"/>
        <path class="cls-1" d="M159.45,418.87c3.2,5.9,4.8,13.98,4.8,24.24,0,9.73-1.45,17.77-4.35,24.14-4.2,9.13-11.06,13.69-20.59,13.69-8.6,0-14.99-3.73-19.19-11.19-3.5-6.23-5.25-14.59-5.25-25.08,0-8.13,1.05-15.11,3.15-20.94,3.93-10.86,11.04-16.29,21.34-16.29,9.26,0,15.96,3.81,20.09,11.44ZM150.4,466.54c2.77-4.13,4.15-11.83,4.15-23.08,0-8.13-1-14.82-3-20.06-2-5.25-5.89-7.87-11.66-7.87-5.31,0-9.18,2.49-11.64,7.47-2.45,4.98-3.68,12.32-3.68,22.01,0,7.3.78,13.16,2.35,17.59,2.4,6.76,6.51,10.14,12.31,10.14,4.67,0,8.39-2.07,11.16-6.2Z"/>
        <path class="cls-1" d="M178.39,428.31v-6.9c6.5-.63,11.03-1.69,13.59-3.17,2.57-1.48,4.48-4.99,5.75-10.52h7.1v71.26h-9.59v-50.67h-16.84Z"/>
        <path class="cls-1" d="M236.85,426.16h10.44v10.89h-10.44v-10.89ZM236.85,468.09h10.44v10.89h-10.44v-10.89Z"/>
        <path class="cls-1" d="M260.96,462.89c2.21-4.56,6.54-8.71,12.97-12.44l9.59-5.55c4.3-2.5,7.31-4.63,9.05-6.4,2.73-2.77,4.1-5.94,4.1-9.51,0-4.17-1.25-7.48-3.75-9.94-2.5-2.45-5.83-3.68-9.99-3.68-6.16,0-10.43,2.34-12.79,7.02-1.27,2.51-1.97,5.98-2.1,10.42h-9.14c.1-6.23,1.25-11.31,3.45-15.24,3.9-6.93,10.78-10.39,20.64-10.39,8.2,0,14.18,2.22,17.96,6.65,3.78,4.43,5.67,9.36,5.67,14.79,0,5.73-2.02,10.63-6.05,14.69-2.33,2.37-6.51,5.23-12.54,8.6l-6.85,3.8c-3.27,1.8-5.83,3.52-7.69,5.15-3.33,2.9-5.43,6.11-6.3,9.64h39.08v8.5h-49.12c.33-6.16,1.61-11.53,3.82-16.09Z"/>
        <path class="cls-1" d="M358.63,418.87c3.2,5.9,4.8,13.98,4.8,24.24,0,9.73-1.45,17.77-4.35,24.14-4.2,9.13-11.06,13.69-20.59,13.69-8.6,0-14.99-3.73-19.19-11.19-3.5-6.23-5.25-14.59-5.25-25.08,0-8.13,1.05-15.11,3.15-20.94,3.93-10.86,11.04-16.29,21.34-16.29,9.26,0,15.96,3.81,20.09,11.44ZM349.57,466.54c2.77-4.13,4.15-11.83,4.15-23.08,0-8.13-1-14.82-3-20.06-2-5.25-5.89-7.87-11.66-7.87-5.31,0-9.18,2.49-11.64,7.47-2.45,4.98-3.68,12.32-3.68,22.01,0,7.3.78,13.16,2.35,17.59,2.4,6.76,6.51,10.14,12.31,10.14,4.67,0,8.39-2.07,11.16-6.2Z"/>
        <path class="cls-1" d="M377.56,428.31v-6.9c6.5-.63,11.02-1.69,13.59-3.17,2.56-1.48,4.48-4.99,5.75-10.52h7.1v71.26h-9.6v-50.67h-16.84Z"/>
        <path class="cls-1" d="M437.33,460.74c.6,5.13,2.98,8.68,7.15,10.64,2.13,1,4.6,1.5,7.4,1.5,5.33,0,9.28-1.7,11.84-5.1,2.56-3.4,3.85-7.16,3.85-11.29,0-5-1.52-8.86-4.57-11.59s-6.7-4.1-10.97-4.1c-3.1,0-5.76.6-7.97,1.8-2.22,1.2-4.11,2.86-5.67,5l-7.8-.45,5.45-38.52h37.18v8.69h-30.43l-3.05,19.89c1.67-1.27,3.25-2.21,4.75-2.85,2.67-1.1,5.75-1.65,9.24-1.65,6.56,0,12.13,2.11,16.69,6.35,4.56,4.23,6.85,9.59,6.85,16.09s-2.09,12.73-6.27,17.89c-4.18,5.16-10.85,7.74-20.01,7.74-5.83,0-10.98-1.64-15.46-4.92-4.48-3.28-6.99-8.32-7.52-15.11h9.34Z"/>
      </g>
    </g>
  </g>
</svg>